<svg width="500" height="462" viewBox="0 0 500 462" xmlns="http://www.w3.org/2000/svg"><title>Shape</title><path d="M430.426 317.23c-25.46 0-48.903-13.908-61.13-36.414l-37.181-68.402-31.258 58.034c-15.629 30.85-59.49 34.897-75.372 4.173l-32.77-63.345-49.408 91.793-59.238.38 70.834-134.782c14.999-28.575 55.457-29.08 71.338-1.012l35.292 62.713 34.282-62.586c15.377-28.07 55.71-28.196 71.087-.127l48.021 86.989c8.697 15.804 32.518 9.609 32.518-8.345l.126-115.69c0-42.988-34.913-78.011-77.766-78.011H130.45c-42.853 0-77.766 35.023-77.766 78.011v200.529c0 42.988 34.913 78.011 77.766 78.011h321.15V462H130.45C58.482 462 0 403.333 0 331.138V130.862C0 58.54 58.356 0 130.451 0H369.55C441.644 0 500 58.54 500 130.862v116.575c0 38.563-31.132 69.793-69.574 69.793z" fill="#7510F7" fill-rule="nonzero"/></svg>